<?xml version="1.0" encoding="UTF-8"?><svg id="Layer_2" xmlns="http://www.w3.org/2000/svg" width="40.84" height="36" viewBox="0 0 40.84 36"><defs><style>.cls-1{fill:#fff;}.cls-2{fill:#c06;}</style></defs><g id="Layer_1-2"><path class="cls-1" d="m0,2.67v30.66c0,1.47,1.2,2.67,2.67,2.67h18.32c13.85,0,19.85-7.75,19.85-18.04S34.84,0,20.99,0H2.67C1.2,0,0,1.2,0,2.67Z"/><path class="cls-2" d="m12.26,7.53v22.66h9.86c8.95,0,12.84-5.06,12.84-12.21s-3.88-12.16-12.84-12.16h-8.15c-.95,0-1.71.77-1.71,1.71Z"/><path d="m20.99,33.56H5.06c-1.41,0-2.56-1.15-2.56-2.56V5.02c0-1.41,1.15-2.56,2.56-2.56h15.93c15.12,0,17.37,9.73,17.37,15.52,0,10.05-6.18,15.58-17.37,15.58ZM5.06,3.31c-.95,0-1.71.76-1.71,1.71v25.98c0,.95.76,1.71,1.71,1.71h15.93c10.65,0,16.52-5.23,16.52-14.73,0-12.76-10.35-14.66-16.52-14.66H5.06Z"/><path class="cls-1" d="m15.73,14.92c.35,0,.67.05.97.16.31.11.56.28.79.49.21.23.39.51.52.83.12.33.19.72.19,1.17,0,.4-.05.76-.15,1.09-.11.33-.25.63-.45.87s-.45.43-.76.57c-.31.13-.67.21-1.08.21h-2.34v-5.42h2.31Zm-.08,4.42c.17,0,.33-.03.51-.08.16-.05.31-.15.43-.28.12-.13.23-.29.31-.51.08-.21.12-.45.12-.76,0-.27-.03-.52-.08-.73-.05-.21-.15-.41-.27-.56s-.28-.28-.48-.36-.44-.12-.73-.12h-.85v3.42h1.05Z"/><path class="cls-1" d="m23.02,14.92v1h-2.86v1.16h2.63v.92h-2.63v1.32h2.92v1h-4.11v-5.42h4.04Z"/><path class="cls-1" d="m27.1,14.92l2.03,5.42h-1.24l-.41-1.2h-2.03l-.43,1.2h-1.2l2.04-5.42s1.24,0,1.24,0Zm.07,3.32l-.68-1.99h-.01l-.71,1.99h1.4Z"/><path class="cls-1" d="m31.06,14.92v4.42h2.64v1h-3.83v-5.42s1.19,0,1.19,0Z"/><circle cx="7.81" cy="17.63" r="2.5"/><path d="m9.69,30.18h0c-2.09,0-3.78-1.69-3.78-3.78v-2.95c0-1.04.84-1.89,1.89-1.89h0c1.04,0,1.89.84,1.89,1.89v6.72h-.01Z"/></g></svg>