<svg xmlns="http://www.w3.org/2000/svg" viewBox="0 0 185.64 50"><defs><style>.h{fill:none;}.h,.i,.j{stroke-width:0px;}.i{fill:#8500ff;}.j{fill:#161615;}</style></defs><g id="c"><path id="d" class="i" d="M62.61,0l-2.75,4.54-3.88-3.72-1.48,5.18-4.88-2.68v5.24l-5.31-1.38,1.44,5.19h-5.63l2.75,4.54-5.32,1.34,3.97,3.81-4.88,2.69,4.77,2.62-3.91,3.7,5.44,1.4-2.82,4.65h5.5l-1.44,5.06,5.45-1.37v5.37l4.77-2.62,1.41,5.07,4-3.78,2.82,4.65,2.75-4.54,3.88,3.72,1.48-5.18,4.88,2.68v-5.25l5.31,1.38-1.44-5.19h5.63l-2.75-4.54,5.32-1.34-3.97-3.81,4.88-2.68-4.77-2.62,3.91-3.7-5.44-1.41,2.82-4.65h-5.5l1.44-5.06-5.45,1.37V3.32l-4.77,2.62-1.41-5.07-4,3.78-2.81-4.65Z"/><path id="e" class="i" d="M102.18,0l-2.75,4.54-3.88-3.72-1.48,5.18-4.88-2.68v5.25l-5.31-1.38,1.33,4.82h1.7l-2.9,4.79,5.6,1.45-4.02,3.81,4.91,2.7-5.02,2.76,4.09,3.92-5.48,1.38,2.84,4.68h-1.83l-1.34,4.69,5.45-1.37v5.38l4.77-2.62,1.4,5.07,4-3.78,2.82,4.65,2.75-4.54,3.88,3.72,1.48-5.18,4.88,2.68v-5.25l5.31,1.38-1.44-5.19h5.63l-2.76-4.54,5.32-1.34-3.97-3.81,4.88-2.68-4.77-2.62,3.91-3.7-5.44-1.41,2.82-4.65h-5.5l1.45-5.06-5.45,1.37V3.32l-4.77,2.62-1.41-5.07-4,3.78-2.81-4.65Z"/><polygon class="j" points="20.04 2.15 20.04 13.02 21.89 13.02 21.89 19.77 14.8 19.77 14.8 13.02 16.65 13.02 16.65 2.15 0 2.15 0 13.02 2.47 13.02 2.47 36.5 0 36.5 0 47.37 16.65 47.37 16.65 36.5 14.8 36.5 14.8 29.16 21.89 29.16 21.89 36.5 20.04 36.5 20.04 47.37 36.69 47.37 36.69 36.5 34.23 36.5 34.23 13.02 36.69 13.02 36.69 2.15 20.04 2.15"/><polygon class="j" points="126.43 2.15 126.43 13.02 129.82 13.02 129.82 36.5 126.43 36.5 126.43 47.37 145.85 47.37 145.85 36.5 142.15 36.5 142.15 29.16 147.7 29.16 147.7 20.06 142.15 20.06 142.15 13.02 149.25 13.02 149.25 17.13 157.57 17.13 157.57 2.15 126.43 2.15"/><rect class="h" width="185" height="50"/><g id="f"><path id="g" class="j" d="M177,15.06h7.4V2.12h-7.4v2.35c-1-.92-2.15-1.67-3.39-2.21-7.84-3.15-12.85,4.2-13.52,10.74-.42,4.17.57,9.06,3.44,12.35,2.01,2.35,4.74,3.98,7.3,5.69,2.02,1.37,5.41,4.02,3.47,6.66-2.07,2.8-5.15-.29-6.05-2.35-.45-.82-.72-1.73-.79-2.67h-7.1v.31h0v14.4h7.09v-.04h.02v-2.6c1.98,1.29,3.69,2.74,6.15,3.13,4.52.72,8.33-2.06,10.24-5.78,2.55-5.34,2.37-11.57-.47-16.76-1.9-3.4-5.38-5.57-8.53-7.83-1.49-1.06-3.7-2.17-4.4-3.93-.76-1.91.92-4.35,3.16-3.52,2.09.77,3.08,3.03,3.39,4.99"/></g></g></svg>
