<?xml version="1.0" encoding="UTF-8"?><svg id="b" xmlns="http://www.w3.org/2000/svg" width="38.63" height="30" viewBox="0 0 38.63 30"><defs><style>.d{fill:#1d1d1b;}.d,.e,.f,.g{stroke-width:0px;}.e{fill:#e30d17;}.f{fill:#f69f00;}.g{fill:#eb610a;}</style></defs><g id="c"><path class="d" d="M6.64,26.93c-.11-.11-.25-.2-.39-.26-.16-.06-.33-.09-.5-.09-.1,0-.2,0-.31.02-.1.02-.21.05-.31.09-.1.04-.19.1-.27.17-.09.08-.17.17-.23.28-.1-.17-.25-.32-.43-.41-.19-.1-.41-.16-.62-.15-.08,0-.16,0-.24.02-.09.02-.17.04-.25.07-.18.08-.34.21-.44.37v-.39h-.66v3.16h.67v-1.75c0-.12.02-.24.06-.36.04-.1.1-.19.17-.26.07-.07.16-.12.25-.15.1-.04.2-.06.31-.05.2-.01.39.07.53.21.13.17.2.39.19.61v1.76h.67v-1.75c0-.12.02-.24.06-.36.04-.1.1-.19.17-.26.07-.07.16-.12.25-.15.1-.04.2-.06.31-.05.2-.01.39.07.53.21.13.17.2.39.19.61v1.76h.67v-1.98c0-.18-.03-.35-.09-.52-.06-.15-.14-.28-.26-.4"/><path class="d" d="M10.17,27.04c-.11-.14-.25-.25-.41-.33-.18-.09-.38-.13-.58-.13-.42,0-.83.17-1.12.47-.15.15-.26.33-.34.53-.16.43-.16.91,0,1.34.08.2.19.37.34.53.3.3.7.47,1.12.46.2,0,.4-.04.58-.13.16-.08.3-.2.41-.34v.38h.69v-3.16h-.69v.38h0ZM10.14,28.64c-.04.12-.11.23-.19.32-.09.09-.19.16-.31.21-.25.11-.54.11-.79,0-.12-.05-.22-.12-.31-.22-.08-.09-.15-.2-.19-.32-.09-.25-.09-.53,0-.78.04-.12.1-.23.19-.32.09-.09.19-.17.31-.22.25-.11.54-.11.79,0,.12.05.22.12.31.21.08.09.15.2.19.32.09.26.09.54,0,.8"/><path class="d" d="M14.02,28.24c-.24-.17-.52-.27-.81-.31l-.33-.05c-.07-.01-.14-.02-.2-.04-.06-.01-.11-.03-.16-.06-.04-.02-.08-.05-.11-.09-.03-.04-.04-.09-.04-.14,0-.11.06-.21.15-.27.13-.08.29-.11.44-.1.1,0,.2,0,.29.03.09.02.18.04.27.07.08.02.16.05.23.09.06.03.12.06.18.09l.3-.54c-.18-.11-.37-.19-.58-.25-.23-.06-.47-.09-.7-.09-.18,0-.37.02-.54.07-.15.04-.29.11-.41.2-.11.08-.2.19-.25.32-.06.13-.09.28-.09.42,0,.23.09.46.27.61.23.18.51.28.8.31l.33.04c.15.01.29.06.42.13.08.05.13.13.13.22,0,.12-.07.23-.18.28-.17.08-.35.11-.54.1-.12,0-.23,0-.35-.03-.1-.02-.19-.04-.28-.07-.08-.03-.15-.06-.23-.1-.06-.04-.13-.08-.19-.12l-.32.52c.11.08.23.15.36.21.12.05.24.09.37.12.11.03.23.05.34.06.11.01.2.02.28.02.21,0,.41-.02.61-.08.16-.04.32-.11.46-.21.11-.08.2-.19.27-.32.07-.13.1-.27.1-.42.01-.25-.1-.48-.29-.63"/><path class="d" d="M20.47,27.04c-.13-.15-.29-.26-.47-.34-.19-.08-.4-.12-.61-.12-.22,0-.44.04-.64.12-.19.08-.36.19-.5.34-.14.15-.25.33-.32.53-.08.22-.12.45-.12.68,0,.23.04.46.12.68.07.2.19.37.33.52.15.15.32.26.51.34.21.08.43.12.65.12.23,0,.46-.03.68-.1.23-.07.43-.19.61-.35l-.34-.49c-.13.11-.28.19-.44.25-.15.06-.31.09-.48.09-.11,0-.22-.01-.32-.05-.1-.03-.2-.08-.28-.14-.09-.07-.16-.15-.21-.25-.06-.11-.11-.24-.12-.37h2.33s0-.08.01-.13,0-.09,0-.13c0-.23-.03-.46-.11-.67-.07-.19-.17-.37-.31-.52M18.54,27.97c.02-.11.05-.21.09-.31.04-.09.1-.18.17-.25.07-.07.16-.12.25-.15.1-.04.22-.06.33-.06.2,0,.39.07.54.2.15.16.24.36.26.57h-1.64Z"/><path class="d" d="M29.63,27.04c-.11-.14-.25-.26-.41-.34-.18-.09-.38-.13-.58-.13-.42,0-.83.17-1.12.47-.15.15-.26.33-.34.53-.16.43-.16.91,0,1.34.08.2.19.37.34.53.29.3.7.47,1.12.47.2,0,.4-.04.58-.13.16-.08.3-.2.41-.34v.38h.69v-3.16h-.69v.38h0ZM29.61,28.64c-.04.12-.11.23-.19.32-.09.09-.19.16-.31.21-.25.11-.54.11-.79,0-.12-.05-.22-.12-.31-.22-.08-.09-.15-.2-.19-.32-.09-.25-.09-.53,0-.78.04-.12.1-.23.19-.32.09-.09.19-.17.31-.22.25-.11.54-.11.79,0,.12.05.22.12.31.21.08.09.15.2.19.32.09.26.09.54,0,.8"/><path class="d" d="M16.98,29.19c-.1.04-.22.06-.33.06-.07,0-.13-.01-.2-.03-.06-.02-.11-.06-.15-.1-.05-.05-.08-.12-.11-.18-.03-.09-.04-.18-.04-.27v-1.37h1.11v-.63h-1.11v-.96h-.69v.96h-.63v.63h.63v1.39c0,.42.1.73.31.93.22.21.53.32.83.31.18,0,.37-.03.54-.09.1-.04.2-.09.29-.14l-.24-.58c-.07.04-.14.07-.21.1"/><path class="d" d="M23.2,26.58c-.18,0-.36.03-.52.11-.16.1-.3.23-.39.39v-.41h-.63v3.16h.63v-1.73c0-.12.02-.24.06-.36.03-.1.08-.19.15-.27.07-.07.15-.13.24-.16.1-.04.2-.06.31-.06.09,0,.18.01.27.03.05,0,.09.02.14.04l.2-.66c-.06-.02-.11-.03-.17-.04-.09-.01-.19-.02-.29-.02"/><path class="d" d="M32.77,26.58c-.18,0-.36.03-.52.11-.16.1-.3.23-.39.39v-.41h-.63v3.16h.63v-1.73c0-.12.02-.24.06-.36.03-.1.08-.19.15-.27.07-.07.15-.13.24-.16.1-.04.2-.06.31-.06.09,0,.18.01.27.03.05,0,.09.02.14.04l.2-.66c-.06-.02-.11-.03-.17-.04-.09-.01-.19-.02-.29-.02"/><path class="d" d="M35.99,25.38v1.67c-.11-.14-.25-.25-.41-.33-.18-.09-.38-.13-.58-.13-.42,0-.83.17-1.12.47-.15.15-.26.33-.34.53-.16.43-.16.91,0,1.34.08.2.19.37.34.53.29.3.7.47,1.12.47.2,0,.4-.04.58-.13.16-.08.3-.2.41-.34v.38h.69v-4.45h-.69ZM35.96,28.64c-.04.12-.11.23-.19.32-.09.09-.19.16-.31.21-.25.11-.54.11-.79,0-.12-.05-.22-.12-.31-.22-.08-.09-.15-.2-.19-.32-.09-.25-.09-.53,0-.78.04-.12.1-.23.19-.32.09-.09.19-.17.31-.22.25-.11.54-.11.79,0,.12.05.22.12.31.21.08.09.15.2.19.32.09.26.09.54,0,.8"/><path class="d" d="M24.84,27.51c.09-.09.2-.16.31-.21.12-.05.26-.08.39-.07.15,0,.29.02.43.07.12.04.24.11.33.2l.33-.55c-.13-.1-.27-.18-.42-.24-.44-.17-.92-.17-1.35,0-.2.08-.38.2-.54.35-.15.15-.27.33-.35.53-.17.42-.17.9,0,1.32.08.2.2.38.35.53.15.15.34.27.54.35.44.17.92.17,1.36,0,.15-.06.29-.14.42-.24l-.33-.55c-.1.09-.21.15-.33.2-.14.05-.28.08-.43.07-.13,0-.27-.02-.39-.07-.12-.05-.22-.12-.31-.21-.09-.09-.16-.2-.21-.32-.1-.26-.1-.56,0-.82.05-.12.12-.23.21-.32"/><path class="d" d="M38.13,29.36s.09,0,.13.03c.04.02.07.04.11.07.03.03.05.06.07.1.03.08.03.17,0,.25-.02.04-.04.07-.07.1-.06.06-.15.09-.23.09-.05,0-.09,0-.13-.03-.04-.02-.08-.04-.11-.07-.03-.03-.05-.06-.07-.1-.03-.08-.03-.17,0-.25.02-.04.04-.07.07-.1.03-.03.07-.05.11-.07.04-.02.09-.03.13-.03M38.13,29.91s.06,0,.09-.02c.12-.05.17-.19.12-.31-.01-.03-.03-.05-.05-.07-.02-.02-.05-.04-.07-.05-.03-.01-.06-.02-.09-.02-.03,0-.06,0-.09.02-.03.01-.05.03-.07.05-.02.02-.04.05-.05.07-.04.09-.02.19.05.25.02.02.05.04.07.05.03.01.06.02.09.02M38.15,29.53s.06,0,.09.03c.02.02.03.04.03.07,0,.02,0,.04-.02.06-.02.02-.04.03-.06.03l.09.1h-.09l-.08-.1h0v.1h-.08v-.29h.14,0ZM38.09,29.6v.05h.06s.02,0,.03,0c0,0,.01-.01.01-.02,0,0,0-.02,0-.02,0,0-.02,0-.03,0h-.06Z"/><path class="e" d="M14.78,11.91c0-3.64,1.66-7.08,4.52-9.33C14.15-1.51,6.66-.64,2.58,4.51c-4.08,5.15-3.22,12.64,1.94,16.73,4.33,3.43,10.46,3.43,14.79,0-2.86-2.25-4.52-5.69-4.52-9.33"/><path class="g" d="M14.78,11.91c0,3.64,1.66,7.08,4.52,9.33,5.15-4.07,6.03-11.55,1.96-16.71-.57-.73-1.23-1.38-1.96-1.96-2.86,2.25-4.52,5.69-4.52,9.33"/><path class="f" d="M37.78,18.34v-.35h-.14v-.1h.39v.1h-.15v.35h-.1,0ZM38.52,18.34v-.31l-.1.27h-.11l-.1-.27v.31h-.1v-.44h.15l.11.28.11-.28h.15v.44h-.11Z"/><path class="f" d="M26.68,0c-2.68,0-5.28.9-7.38,2.57,5.15,4.07,6.03,11.55,1.96,16.71-.57.73-1.23,1.38-1.96,1.96,5.15,4.09,12.64,3.23,16.73-1.92,4.09-5.15,3.23-12.64-1.92-16.73C32,.91,29.38,0,26.68,0"/></g></svg>