<svg xmlns="http://www.w3.org/2000/svg" xmlns:xlink="http://www.w3.org/1999/xlink" width="49.56" height="16" viewBox="0 0 216 69.76"><defs><style>.a{fill:none;}.b{clip-path:url(#a);}.c{fill:url(#b);}</style><clipPath id="a" transform="translate(0 0)"><path class="a" d="M63.68,1.23L45.51,47.16l-7.35-39a8.13,8.13,0,0,0-8-6.88H0.41L0,3.19C6.09,4.52,13,6.65,17.22,8.93c2.57,1.4,3.3,2.61,4.15,5.93L35.28,68.7H53.73L82,1.23H63.68Zm25.82,0L75.06,68.7H92.52L106.95,1.23H89.5ZM189.57,19.46l5.29,25.33H180.38ZM187,1.23a7.94,7.94,0,0,0-7.43,4.95L153.39,68.7h18.32l3.64-10.08h22.39l2.11,10.08H216L201.91,1.23H187ZM141.2,0C123.94,0,111.8,9.17,111.7,22.3,111.59,32,120.37,37.43,127,40.67c6.8,3.31,9.08,5.43,9.05,8.38-0.05,4.53-5.42,6.52-10.45,6.6-8.77.14-13.87-2.37-17.92-4.26L104.5,66.17c4.07,1.87,11.6,3.5,19.41,3.58,18.34,0,30.33-9.05,30.39-23.08,0.08-17.81-24.62-18.79-24.45-26.74,0.05-2.42,2.36-5,7.4-5.65a33,33,0,0,1,17.21,3L157.52,3A46.88,46.88,0,0,0,141.2,0Z"/></clipPath><linearGradient id="b" y1="69.76" x2="1" y2="69.76" gradientTransform="matrix(216, 0, 0, -216, 0, 15102.67)" gradientUnits="userSpaceOnUse"><stop offset="0" stop-color="#231f5c"/><stop offset="1" stop-color="#034ea2"/></linearGradient></defs><title>logo-visa</title><g class="b"><rect class="c" width="216" height="69.76"/></g></svg>